<svg id="Layer_1" data-name="Layer 1" xmlns="http://www.w3.org/2000/svg" viewBox="0 0 1440 1440"><defs><style>.cls-1{fill:#f9fbfd;}.cls-2{fill:#c1b2b2;}</style></defs><rect class="cls-1" x="-1.16" y="-1.17" width="1442.33" height="1442.33"/><path class="cls-2" d="M1260.35,1441.17c-1.12-11.27-1.95-22.53-3.36-33.79-11.26-98.56-38.29-191.77-87.85-278.22-66.46-116-158.54-203.31-284.41-252.31-3.38-1.12-8.73-1.12-8.73-5.63,0-4.22,5.07-5.07,8.16-6.76,57.17-33.51,100.25-80.25,128.41-139.67,27-57.16,36.89-117.7,28.44-180.78-9.85-72.65-40.83-135.45-92.36-186.7-47.87-47.87-105.88-78.28-173.46-88.7-114.05-17.18-211.76,15.2-290.33,99.4-67.58,72.37-95.18,159.1-83.07,257.38,13,104.19,66.46,183.32,155.44,238.51,3.1,2,9.3,2.25,8.45,7.6-.84,3.94-6.19,3.66-9.57,5.07A512.35,512.35,0,0,0,391.65,977.1C297,1063.27,236.78,1170,203.83,1292.77c-13.23,48.43-19.44,98.56-24.51,148.4H-1.17V-1.16H1441.16V1441.17"/></svg>