<svg id="Layer_1" data-name="Layer 1" xmlns="http://www.w3.org/2000/svg" viewBox="0 0 1442.34 1442.34"><defs><style>.cls-1{fill:#f9fbfd;}.cls-2{fill:#c4ccc4;}</style></defs><rect class="cls-1" x="0.01" width="1442.33" height="1442.33"/><path class="cls-2" d="M1261.52,1442.34c-1.12-11.27-2-22.53-3.36-33.79-11.26-98.56-38.29-191.77-87.85-278.22C1103.85,1014.33,1011.77,927,885.9,878c-3.38-1.12-8.73-1.12-8.73-5.63,0-4.22,5.07-5.07,8.16-6.76C942.5,832.12,985.58,785.38,1013.74,726c27-57.16,36.89-117.7,28.44-180.78-9.85-72.65-40.83-135.45-92.36-186.7C902,310.61,843.94,280.2,776.36,269.78,662.31,252.6,564.6,285,486,369.18c-67.58,72.37-95.18,159.1-83.07,257.38,13,104.19,66.46,183.32,155.44,238.51,3.1,2,9.3,2.25,8.45,7.6-.84,3.94-6.19,3.66-9.57,5.07A512.39,512.39,0,0,0,392.82,978.27C298.17,1064.44,238,1171.17,205,1293.94c-13.23,48.43-19.44,98.56-24.51,148.4H0V0H1442.33V1442.34"/></svg>