<svg id="Layer_1" data-name="Layer 1" xmlns="http://www.w3.org/2000/svg" viewBox="0 0 576 511.9"><defs><style>.cls-1{fill:#fff;}</style></defs><path class="cls-1" d="M402.6,83.1l90.2,90.2a9.78,9.78,0,0,1,0,13.8L274.4,405.5l-92.8,10.3a19.45,19.45,0,0,1-21.5-21.5l10.3-92.8L388.8,83.1a9.78,9.78,0,0,1,13.8,0Zm162-22.9L515.8,11.4a39.11,39.11,0,0,0-55.2,0L425.2,46.8a9.78,9.78,0,0,0,0,13.8l90.2,90.2a9.78,9.78,0,0,0,13.8,0l35.4-35.4A39.11,39.11,0,0,0,564.6,60.2ZM384,346.1V447.9H64v-320H293.8a12.3,12.3,0,0,0,8.5-3.5l40-40a12,12,0,0,0-8.5-20.5H48a48,48,0,0,0-48,48v352a48,48,0,0,0,48,48H400a48,48,0,0,0,48-48V306.1a12,12,0,0,0-20.5-8.5l-40,40A12.3,12.3,0,0,0,384,346.1Z"/></svg>