<svg id="Layer_1" data-name="Layer 1" xmlns="http://www.w3.org/2000/svg" viewBox="0 0 740.26 144"><defs><style>.cls-1{fill:#fff;}</style></defs><path class="cls-1" d="M214.66,108.6a10.35,10.35,0,0,1-6-1.65,12.16,12.16,0,0,1-4-5.15l-24.2-53.3a9.72,9.72,0,0,1-1.05-6.4,7.25,7.25,0,0,1,2.85-4.4,9.07,9.07,0,0,1,5.5-1.6q4.1,0,6.2,1.85a14,14,0,0,1,3.5,5.35l20.4,47.2h-5.6l20.4-47.3a14.25,14.25,0,0,1,3.6-5.3,9,9,0,0,1,6-1.8,7.8,7.8,0,0,1,5.05,1.65,7.31,7.31,0,0,1,2.6,4.35,11,11,0,0,1-1,6.4l-24.2,53.3a12.67,12.67,0,0,1-3.9,5.15A10.27,10.27,0,0,1,214.66,108.6Z"/><path class="cls-1" d="M264.46,108.6q-4.5,0-6.9-2.5a9.69,9.69,0,0,1-2.4-7V45.6a9.7,9.7,0,0,1,2.4-7c1.6-1.66,3.9-2.5,6.9-2.5a8.88,8.88,0,0,1,6.7,2.5,9.7,9.7,0,0,1,2.4,7V99.1a9.84,9.84,0,0,1-2.35,7Q268.86,108.6,264.46,108.6Z"/><path class="cls-1" d="M293,107.6c-3.13,0-5.51-.81-7.15-2.45s-2.44-4-2.44-7.15V46.7q0-4.7,2.44-7.15T293,37.1h24.41a33.55,33.55,0,0,1,12.89,2.2,18,18,0,0,1,8.15,6.3,16.57,16.57,0,0,1,2.85,9.7,16.31,16.31,0,0,1-3.55,10.6,18.27,18.27,0,0,1-9.55,6.1V70.3a19.33,19.33,0,0,1,11.05,5.8q4,4.41,3.95,11.5,0,9.3-6.65,14.65t-18.25,5.35Zm7.91-42.5H314q5.21,0,7.5-1.8a6.53,6.53,0,0,0,2.3-5.5c0-2.47-.76-4.28-2.3-5.45s-4-1.75-7.5-1.75H300.86Zm0,29h15c3.39,0,5.88-.65,7.44-1.95a7,7,0,0,0,2.35-5.75q0-4-2.35-6c-1.56-1.3-4.05-2-7.44-2h-15Z"/><path class="cls-1" d="M360.15,107.6c-3.13,0-5.51-.81-7.15-2.45s-2.45-4-2.45-7.15V46.7q0-4.7,2.45-7.15t7.15-2.45h34a7.21,7.21,0,0,1,5.25,1.8,6.9,6.9,0,0,1,1.85,5.2,7.2,7.2,0,0,1-1.85,5.35,7.06,7.06,0,0,1-5.25,1.85h-26.1V64.7h23.8a7.48,7.48,0,0,1,5.3,12.35,7,7,0,0,1-5.3,1.85h-23.8V93.4h26.1a7.48,7.48,0,0,1,5.25,12.4,7.21,7.21,0,0,1-5.25,1.8Z"/><path class="cls-1" d="M444.85,108.8q-11.7,0-20.1-4.55a31.94,31.94,0,0,1-12.95-12.7,38.9,38.9,0,0,1-4.55-19.25,41.53,41.53,0,0,1,2.55-14.95A31.36,31.36,0,0,1,417.25,46a34.59,34.59,0,0,1,11.85-7.4A45.27,45.27,0,0,1,454.3,37a35,35,0,0,1,8.75,3.1A8.17,8.17,0,0,1,467,44a8.53,8.53,0,0,1,.7,4.8,9,9,0,0,1-1.75,4.3,7.07,7.07,0,0,1-3.6,2.55,6.32,6.32,0,0,1-4.9-.7,24,24,0,0,0-5.9-2.15,29.37,29.37,0,0,0-6.2-.65,20.53,20.53,0,0,0-10.25,2.35,15,15,0,0,0-6.25,6.8,25.84,25.84,0,0,0-2.1,11,26.17,26.17,0,0,0,2.1,11.1,14.88,14.88,0,0,0,6.25,6.85,20.53,20.53,0,0,0,10.25,2.35,28.74,28.74,0,0,0,5.75-.6A24.41,24.41,0,0,0,457,90a8.28,8.28,0,0,1,5.3-.75,6.62,6.62,0,0,1,3.85,2.4,9.12,9.12,0,0,1,1.85,4.2,7.78,7.78,0,0,1-.65,4.65,7.91,7.91,0,0,1-3.65,3.7,30.8,30.8,0,0,1-8.65,3.35A43,43,0,0,1,444.85,108.8Z"/><path class="cls-1" d="M484.25,108.6q-4.5,0-6.9-2.5a9.69,9.69,0,0,1-2.4-7V45.6a9.7,9.7,0,0,1,2.4-7c1.6-1.66,3.9-2.5,6.9-2.5a8.87,8.87,0,0,1,6.7,2.5,9.7,9.7,0,0,1,2.4,7V64.4h29.1V45.6a9.7,9.7,0,0,1,2.4-7,8.88,8.88,0,0,1,6.7-2.5c3,0,5.29.84,6.85,2.5a9.81,9.81,0,0,1,2.35,7V99.1a9.8,9.8,0,0,1-2.35,7c-1.56,1.67-3.85,2.5-6.85,2.5a8.85,8.85,0,0,1-6.7-2.5,9.69,9.69,0,0,1-2.4-7V79.4h-29.1V99.1a9.8,9.8,0,0,1-2.35,7Q488.66,108.6,484.25,108.6Z"/><path class="cls-1" d="M560.15,107.6c-3.13,0-5.52-.81-7.15-2.45s-2.45-4-2.45-7.15V46.7q0-4.7,2.45-7.15c1.63-1.63,4-2.45,7.15-2.45h34a7.21,7.21,0,0,1,5.25,1.8,6.94,6.94,0,0,1,1.85,5.2,7.24,7.24,0,0,1-1.85,5.35,7.06,7.06,0,0,1-5.25,1.85h-26.1V64.7h23.8a7.48,7.48,0,0,1,5.3,12.35,7,7,0,0,1-5.3,1.85h-23.8V93.4h26.1a7.48,7.48,0,0,1,5.25,12.4,7.21,7.21,0,0,1-5.25,1.8Z"/><path class="cls-1" d="M644.85,108.8q-11.7,0-20.1-4.55a31.87,31.87,0,0,1-13-12.7,38.9,38.9,0,0,1-4.55-19.25,41.53,41.53,0,0,1,2.55-14.95A31.23,31.23,0,0,1,617.25,46a34.59,34.59,0,0,1,11.85-7.4A45.27,45.27,0,0,1,654.3,37a35,35,0,0,1,8.75,3.1A8.21,8.21,0,0,1,667,44a8.62,8.62,0,0,1,.7,4.8,9.14,9.14,0,0,1-1.75,4.3,7.07,7.07,0,0,1-3.6,2.55,6.31,6.31,0,0,1-4.9-.7,24,24,0,0,0-5.9-2.15,29.44,29.44,0,0,0-6.2-.65,20.5,20.5,0,0,0-10.25,2.35,15,15,0,0,0-6.25,6.8,25.84,25.84,0,0,0-2.1,11,26.17,26.17,0,0,0,2.1,11.1,14.83,14.83,0,0,0,6.25,6.85,20.5,20.5,0,0,0,10.25,2.35,28.82,28.82,0,0,0,5.75-.6A24.41,24.41,0,0,0,657,90a8.27,8.27,0,0,1,5.3-.75,6.65,6.65,0,0,1,3.85,2.4,9.22,9.22,0,0,1,1.85,4.2,7.78,7.78,0,0,1-.65,4.65,8,8,0,0,1-3.65,3.7,30.92,30.92,0,0,1-8.65,3.35A43.1,43.1,0,0,1,644.85,108.8Z"/><path class="cls-1" d="M684.25,108.6q-4.5,0-6.9-2.5a9.55,9.55,0,0,1-2.4-6.9V45.5c0-3.06.8-5.4,2.4-7s3.9-2.4,6.9-2.4a9.07,9.07,0,0,1,6.7,2.4c1.6,1.6,2.4,3.94,2.4,7V67.3h.2l24.3-26.8a16.15,16.15,0,0,1,4-3.15,10.07,10.07,0,0,1,4.85-1.15q4.1,0,6,2.15a6.74,6.74,0,0,1,1.75,5,8.12,8.12,0,0,1-2.45,5.25L708,74.3l.1-7.6,25.3,28.7a9.28,9.28,0,0,1,2.6,6,6.83,6.83,0,0,1-2.1,5.1,8.22,8.22,0,0,1-6,2,9.53,9.53,0,0,1-5.45-1.4,22.68,22.68,0,0,1-4.35-4.1l-24.5-27.4h-.2V99.2a9.65,9.65,0,0,1-2.35,6.9Q688.65,108.6,684.25,108.6Z"/><path class="cls-1" d="M72,0a72,72,0,1,0,72,72A72,72,0,0,0,72,0ZM36.16,21.36l.35-.26A60.55,60.55,0,0,1,60.68,10.74,61.42,61.42,0,0,1,107.46,21.1a2.19,2.19,0,0,1,1.11,2,2,2,0,0,1-2.6,1.8,6.07,6.07,0,0,1-.74-.31,89.71,89.71,0,0,0-18.68-6.23,72.66,72.66,0,0,0-19.13-1.43A77.26,77.26,0,0,0,39,24.47a8.16,8.16,0,0,1-.8.36,2,2,0,0,1-2-3.47ZM94.48,76.23c-6.43,6.1-12.94,12.12-19.42,18.16a4.36,4.36,0,0,1-6.29,0l-19.27-18a16.13,16.13,0,0,1-5.28-12.13A15.21,15.21,0,0,1,50.5,51.37a15.39,15.39,0,0,1,20,1.34c.47.45.9.93,1.42,1.48.49-.49.89-.9,1.3-1.29,4.36-4.17,9.51-5.61,15.29-3.92A14.55,14.55,0,0,1,99.24,60.52,15.9,15.9,0,0,1,94.48,76.23Zm1.57,34.65a5.27,5.27,0,0,1-.6.41A40.25,40.25,0,0,1,81.06,117a48.27,48.27,0,0,1-9.18.85,45.11,45.11,0,0,1-19.07-4.2A51.35,51.35,0,0,1,48.19,111a1.93,1.93,0,0,1-.95-2.18A2,2,0,0,1,50,107.4c1.73.55,3.44,1.17,5.19,1.66a62.36,62.36,0,0,0,20,2.17,64.87,64.87,0,0,0,18.64-3.73,2.33,2.33,0,0,1,1.56-.16,2,2,0,0,1,1.43,1.52A2,2,0,0,1,96.05,110.88ZM47.78,33.44a6,6,0,0,1,1.11-1.15,16,16,0,0,1,3.42-2.06,50.83,50.83,0,0,1,11.91-3.78,39.62,39.62,0,0,1,9.35-.72,44.68,44.68,0,0,1,21.69,6.41,2.32,2.32,0,0,1,1.24,1.45A2,2,0,0,1,93.87,36c-1.63-.47-3.25-1-4.89-1.44a63.81,63.81,0,0,0-16.8-2.29,59.39,59.39,0,0,0-21.61,4,3.92,3.92,0,0,1-1,.25,1.84,1.84,0,0,1-1.8-1A1.86,1.86,0,0,1,47.78,33.44Zm60.44,88.64a4.25,4.25,0,0,1-.57.46,57.75,57.75,0,0,1-22.57,10.08A59,59,0,0,1,72,134a59.66,59.66,0,0,1-29.06-7.36,51.79,51.79,0,0,1-6.69-4.4,5,5,0,0,1-.5-.42,2,2,0,0,1,2.14-3.33c.21.08.4.18.6.27a78.84,78.84,0,0,0,19.74,6.67,71.71,71.71,0,0,0,11.87,1.28,76.45,76.45,0,0,0,26.15-4,93.13,93.13,0,0,0,9.21-3.63c.22-.1.43-.21.66-.29a2,2,0,0,1,2.12,3.34Z"/></svg>