<svg id="Layer_1" data-name="Layer 1" xmlns="http://www.w3.org/2000/svg" viewBox="0 0 607.02 607.02"><defs><style>.cls-1{fill:#fff;}</style></defs><path class="cls-1" d="M303.51,0C135.89,0,0,135.88,0,303.51S135.89,607,303.51,607,607,471.13,607,303.51,471.13,0,303.51,0ZM152.41,90.06a17.72,17.72,0,0,1,1.48-1.1c30.82-21.9,64.67-36.74,101.89-43.69A260.69,260.69,0,0,1,300.57,41c57.79.21,107.64,16.19,152.43,48,2.95,2.09,4.9,4.6,4.67,8.41a8.5,8.5,0,0,1-11,7.58,25.54,25.54,0,0,1-3.11-1.3,377.48,377.48,0,0,0-78.75-26.25,305.2,305.2,0,0,0-80.62-6c-42.17,2.48-82,13.93-120,31.78-1.11.52-2.19,1.13-3.35,1.54a8.56,8.56,0,0,1-8.42-14.62ZM398.29,321.35c-27.12,25.7-54.56,51.06-81.89,76.54-8,7.49-18.42,7.42-26.49-.11q-40.64-37.92-81.25-75.85c-14.77-13.82-22.14-30.92-22.25-51.13-.11-22.42,8.51-40.75,26.45-54.26a65,65,0,0,1,84.26,5.66c1.94,1.9,3.77,3.92,6,6.22,2.07-2.07,3.73-3.79,5.46-5.44,18.4-17.56,40.08-23.63,64.47-16.53s40,23.83,45.33,48.65C423.77,280.48,417.43,303.21,398.29,321.35Zm6.6,146a24.72,24.72,0,0,1-2.53,1.75,169.31,169.31,0,0,1-60.65,24.15A205.39,205.39,0,0,1,303,496.88c-27.24-.31-54.63-5.44-80.39-17.73a222.77,222.77,0,0,1-19.46-11.07,8.13,8.13,0,0,1-4-9.19c1.25-5.2,6.17-7.86,11.41-6.18,7.3,2.35,14.53,5,21.92,7a262.83,262.83,0,0,0,84.2,9.17,275,275,0,0,0,78.58-15.73c2.16-.77,4.26-1.42,6.57-.66a8.34,8.34,0,0,1,6,6.37A8.22,8.22,0,0,1,404.89,467.39ZM201.42,141a25.72,25.72,0,0,1,4.66-4.84,67.18,67.18,0,0,1,14.44-8.67c16-7.56,32.85-12.54,50.18-15.94a165.45,165.45,0,0,1,39.41-3.05c32.73,1.45,63.36,9.92,91.46,27,2.44,1.49,4.53,3.18,5.23,6.11,1.6,6.67-4.37,12.16-11.11,10.18s-13.67-4.26-20.59-6.11c-23.35-6.22-47.09-9.75-70.84-9.65-31.75-.13-61.9,5.84-91.1,16.9a14.87,14.87,0,0,1-4.43,1.07,8.44,8.44,0,0,1-7.31-13ZM456.17,514.62a20.34,20.34,0,0,1-2.38,1.94c-28.6,21.14-60.44,35.07-95.15,42.47a247.49,247.49,0,0,1-55.2,5.77c-43.4-.16-84.37-10-122.5-31a219.55,219.55,0,0,1-28.2-18.57,18.92,18.92,0,0,1-2.11-1.78,8.55,8.55,0,0,1,9-14,23.65,23.65,0,0,1,2.52,1.13,334.79,334.79,0,0,0,83.22,28.12,303.21,303.21,0,0,0,50,5.39c37.77.95,74.43-5.2,110.22-17.05a391.78,391.78,0,0,0,38.82-15.28c.93-.43,1.85-.88,2.81-1.22a8.44,8.44,0,0,1,10.14,3.6A8.55,8.55,0,0,1,456.17,514.62Z"/></svg>