<?xml version="1.0" encoding="utf-8"?>
<!-- Generator: Adobe Illustrator 26.1.0, SVG Export Plug-In . SVG Version: 6.00 Build 0)  -->
<svg version="1.1" id="Layer_1" xmlns="http://www.w3.org/2000/svg" xmlns:xlink="http://www.w3.org/1999/xlink" x="0px" y="0px"
	 viewBox="0 0 360 360" style="enable-background:new 0 0 360 360;" xml:space="preserve">
<style type="text/css">
	.st0{fill:#DAFBFF;}
</style>
<path class="st0" d="M93.9,32.4C73.5,32.4,57,48.9,57,69.3v221.4c0,20.4,16.5,36.9,36.9,36.9h24.6c20.4,0,36.9-16.5,36.9-36.9V69.3
	c0-20.4-16.5-36.9-36.9-36.9H93.9z M241.5,32.4c-20.4,0-36.9,16.5-36.9,36.9v221.4c0,20.4,16.5,36.9,36.9,36.9h24.6
	c20.4,0,36.9-16.5,36.9-36.9V69.3c0-20.4-16.5-36.9-36.9-36.9H241.5z"/>
</svg>
