<svg id="Layer_1" data-name="Layer 1" xmlns="http://www.w3.org/2000/svg" viewBox="0 0 1440 1440"><defs><style>.cls-1{fill:#c1b2b2;}.cls-2{fill:#fff;}</style></defs><rect class="cls-1" width="1440" height="1440"/><path class="cls-2" d="M722,225.78c63.57.34,123.8,12.3,179.73,42.08,47.57,25.33,87.07,59.87,111.06,108.66,38.86,79.05,38.52,157.6-10.52,232.87-22.51,34.54-54.62,59.5-88.91,81.67-21,13.58-42.74,26.18-62.89,40.94-37.22,27.27-55.39,65.45-59,110.91-1.06,13.3-.61,26.77-2.41,40-5.27,38.47-39.28,67.24-78.06,68-24.9.51-47.07-5.34-65.17-23.13-14.67-14.42-23.38-32-23.93-52.58-1.14-42,2.84-83.5,16.4-123.63,14.2-42,39.39-76.46,73.78-103.91,20.37-16.26,42.2-30.67,63.22-46.12,17.5-12.87,33.89-27,46.28-45.11C853,510.5,841.7,447.23,796,412.2c-49.45-37.87-124.32-34.36-171.09,7.83-14,12.65-24.92,27.57-34.86,43.53-24,38.45-58.73,61.07-103.89,64.95-61.49,5.3-105.32-60.4-78.93-117.53,26.68-57.75,67.93-102.61,122.59-135C589.21,240.73,654.11,226.18,722,225.78Z"/><path class="cls-2" d="M710.82,1031.78c53.27,0,91.08,36.18,93.15,89.06,2,50.11-34.78,89.67-86.5,93.13-41.68,2.8-77.81-18-92.9-53.44-20.17-47.37.3-101.39,45.95-121A97.78,97.78,0,0,1,710.82,1031.78Z"/></svg>