<svg id="Layer_1" data-name="Layer 1" xmlns="http://www.w3.org/2000/svg" viewBox="0 0 720 720"><defs><style>.cls-1{fill:#fff;}</style></defs><path class="cls-1" d="M0,0H720V720H0ZM314.67,445.82,334.29,436l10.27,19.78,15.5-16.26c5.36,5.59,10.35,10.82,15.48,16.19,3.53-6.8,6.86-13.21,10.24-19.74l19.6,9.85c1.23-7.33,2.42-14.49,3.62-21.67l21.68,3.26c-1.11-7.39-2.18-14.47-3.26-21.68l21.66-3.61-9.84-19.6,19.91-10.33-16.36-15.62,16.12-15.35-19.65-10.19c3.3-6.61,6.51-13.07,9.79-19.63l-21.63-3.6c1.1-7.32,2.16-14.4,3.26-21.68L409,289.42c-1.21-7.29-2.4-14.41-3.6-21.64l-19.62,9.79-10.39-20L359.73,274l-15.22-16.11c-3.54,6.81-6.86,13.22-10.22,19.69l-19.62-9.81c-1.22,7.33-2.4,14.46-3.6,21.65l-21.7-3.26c1.12,7.37,2.19,14.46,3.28,21.69L271,311.45l9.82,19.62L261,341.37l16.24,15.39L261,372.26l19.81,10.28c-3.28,6.58-6.5,13-9.79,19.62l21.65,3.61c-1.11,7.33-2.17,14.41-3.27,21.69l21.69-3.27C312.27,431.42,313.46,438.53,314.67,445.82Z"/></svg>