<svg id="Layer_1" data-name="Layer 1" xmlns="http://www.w3.org/2000/svg" viewBox="0 0 435.06 132"><defs><style>.cls-1,.cls-2{fill:#fff;}.cls-1{fill-opacity:0.01;}</style></defs><rect class="cls-1" x="2.53" width="430" height="132"/><path class="cls-2" d="M103.83,58.54C82.8,45.94,48.12,44.78,28,50.92a6,6,0,0,1-2.38.23,6.1,6.1,0,0,1-2.28-.69,6.06,6.06,0,0,1-2.95-3.63,6.17,6.17,0,0,1,4.06-7.68c23.05-7.06,61.36-5.69,85.57,8.8a6.18,6.18,0,0,1,2.14,8.43,6.29,6.29,0,0,1-1.58,1.79,6.11,6.11,0,0,1-2.15,1,6.13,6.13,0,0,1-4.64-.66Zm-.69,18.65a4.82,4.82,0,0,1-1.34,1.47,5,5,0,0,1-3.79.91,5,5,0,0,1-1.86-.69c-17.53-10.87-44.27-14-65-7.67a5.12,5.12,0,0,1-3.89-.39,5.07,5.07,0,0,1-1.53-1.27,5.14,5.14,0,0,1,2.46-8.15c23.7-7.26,53.16-3.74,73.3,8.74A5.15,5.15,0,0,1,103.14,77.19Zm-8,17.92a3.83,3.83,0,0,1-1.06,1.17,4.19,4.19,0,0,1-1.45.68,4,4,0,0,1-1.58.06,4.06,4.06,0,0,1-1.5-.55C74.25,87,55,84.89,32.26,90.13a4.11,4.11,0,0,1-1.6,0A4,4,0,0,1,28,88.5,3.9,3.9,0,0,1,27.39,87,4.07,4.07,0,0,1,27.9,84a4.14,4.14,0,0,1,2.55-1.83c24.85-5.73,46.17-3.26,63.37,7.34a4.12,4.12,0,0,1,1.34,5.64ZM65.24.2C29.21.2,0,29.66,0,66s29.21,65.8,65.24,65.8,65.25-29.46,65.25-65.8S101.28.2,65.24.2ZM177.5,61c-11.26-2.72-13.27-4.61-13.27-8.61,0-3.77,3.53-6.32,8.77-6.32,5.08,0,10.11,1.93,15.4,5.91a.72.72,0,0,0,.55.13.73.73,0,0,0,.28-.1.8.8,0,0,0,.21-.2l5.5-7.82a.78.78,0,0,0,.13-.53.75.75,0,0,0-.27-.48,33.07,33.07,0,0,0-21.64-7.56c-12.16,0-20.65,7.36-20.65,17.89,0,11.3,7.33,15.29,20,18.38,10.78,2.51,12.6,4.61,12.6,8.36,0,4.15-3.68,6.74-9.6,6.74-6.58,0-11.94-2.24-17.94-7.48a1,1,0,0,0-.25-.15.7.7,0,0,0-.29,0,.69.69,0,0,0-.28.08.65.65,0,0,0-.22.18l-6.17,7.41a.73.73,0,0,0,.07,1,36.57,36.57,0,0,0,24.83,9.6c13.11,0,21.58-7.22,21.58-18.39C196.83,69.54,191.23,64.31,177.5,61ZM236,73.61c0,8-4.87,13.54-11.85,13.54s-12.09-5.82-12.09-13.54,5.19-13.54,12.1-13.54S236,65.76,236,73.61Zm-9.51-23.87a17.65,17.65,0,0,0-14.19,6.88v-5.2a.7.7,0,0,0-.21-.53.73.73,0,0,0-.52-.22H201.47a.67.67,0,0,0-.28.06.74.74,0,0,0-.4.4.75.75,0,0,0-.06.29v57.83a.74.74,0,0,0,.74.74h10.09a.73.73,0,0,0,.52-.22.69.69,0,0,0,.21-.52V91a18.08,18.08,0,0,0,14.19,6.48c10.56,0,21.24-8.2,21.24-23.86S237,49.74,226.48,49.74Zm48.63,37.5c-7.23,0-12.68-5.86-12.68-13.63S267.69,60.14,275,60.14,287.71,66,287.71,73.78,282.42,87.24,275.11,87.24Zm0-37.5A23.91,23.91,0,1,0,275,97.56c13.64,0,24.32-10.52,24.32-24a23.76,23.76,0,0,0-24.16-23.87Zm53.19.93H317.2V39.23a.66.66,0,0,0-.05-.28.82.82,0,0,0-.16-.25.78.78,0,0,0-.24-.16.72.72,0,0,0-.29-.06H306.38a.8.8,0,0,0-.52.22.75.75,0,0,0-.22.53V50.67h-4.85a.67.67,0,0,0-.28.06.78.78,0,0,0-.24.16.82.82,0,0,0-.16.25.66.66,0,0,0-.05.28v8.74a.74.74,0,0,0,.73.75h4.85V83.53c0,9.14,4.51,13.78,13.41,13.78a18.26,18.26,0,0,0,9.45-2.38.7.7,0,0,0,.27-.27.69.69,0,0,0,.1-.37V86a.74.74,0,0,0-.09-.36.68.68,0,0,0-.26-.27.66.66,0,0,0-.35-.11.79.79,0,0,0-.37.07,12.57,12.57,0,0,1-5.92,1.45c-3.23,0-4.68-1.49-4.68-4.81v-21h11.1a.67.67,0,0,0,.28-.06.82.82,0,0,0,.25-.16.75.75,0,0,0,.15-.24.72.72,0,0,0,.06-.29V51.41a.72.72,0,0,0-.06-.29.63.63,0,0,0-.16-.24.67.67,0,0,0-.24-.16.87.87,0,0,0-.28,0Zm38.67,0V49.31c0-4.13,1.57-6,5.1-6a16.89,16.89,0,0,1,5.69,1.06.78.78,0,0,0,.34,0,.77.77,0,0,0,.32-.14,1,1,0,0,0,.23-.26.84.84,0,0,0,.08-.34V35.11a.76.76,0,0,0-.53-.72,27.64,27.64,0,0,0-8.38-1.21c-9.31,0-14.24,5.29-14.24,15.29v2.16h-4.85a.75.75,0,0,0-.74.74v8.79a.75.75,0,0,0,.74.75h4.85V95.8a.74.74,0,0,0,.74.74h10.09a.74.74,0,0,0,.73-.74V60.9h9.42L391,95.78c-1.64,3.67-3.26,4.4-5.45,4.4A11.66,11.66,0,0,1,380,98.59a.7.7,0,0,0-.29-.09.72.72,0,0,0-.29,0,.76.76,0,0,0-.26.16.69.69,0,0,0-.18.24l-3.42,7.57a.74.74,0,0,0,.32,1,21.07,21.07,0,0,0,10.78,2.78c7.44,0,11.56-3.5,15.19-12.91l17.5-45.6a.74.74,0,0,0,0-.36.73.73,0,0,0-.12-.34.82.82,0,0,0-.26-.23.73.73,0,0,0-.35-.09h-10.5a.76.76,0,0,0-.43.14.75.75,0,0,0-.27.36l-10.75,31-11.78-31a.85.85,0,0,0-.27-.35.8.8,0,0,0-.42-.13H367Zm-22.42,0H334.46a.73.73,0,0,0-.73.75V95.8a.74.74,0,0,0,.74.74h10.09a.74.74,0,0,0,.73-.74V51.41a.74.74,0,0,0-.22-.52A.71.71,0,0,0,344.55,50.67Zm-5-20.21a7.3,7.3,0,0,0-2.78,14,7.39,7.39,0,0,0,2.78.57,7.3,7.3,0,0,0,0-14.6Zm88.78,24.63h-1.85v2.37h1.85c.92,0,1.47-.45,1.47-1.18S429.26,55.09,428.34,55.09Zm1.2,3.39,2,2.83h-1.7l-1.8-2.6h-1.56v2.6h-1.41V53.8h3.32c1.73,0,2.87.89,2.87,2.39a2.24,2.24,0,0,1-1.73,2.29ZM428,51.3a6.46,6.46,0,1,0,6.35,6.44A6.37,6.37,0,0,0,428,51.3Zm0,13.64a7.08,7.08,0,0,1-2.73-.55,7,7,0,0,1-2.31-1.56,7.13,7.13,0,0,1-1.54-2.32,7.24,7.24,0,0,1-.52-2.73,7.17,7.17,0,0,1,7.14-7.2,7.35,7.35,0,0,1,2.73.55A7.25,7.25,0,0,1,433,52.69a7.21,7.21,0,0,1-5.08,12.25Z"/></svg>