<svg id="Layer_1" data-name="Layer 1" xmlns="http://www.w3.org/2000/svg" viewBox="0 0 578.36 578.36"><defs><style>.cls-1{fill:#fff;}</style></defs><path class="cls-1" d="M289.18,0C129.47,0,0,129.46,0,289.18S129.47,578.36,289.18,578.36,578.36,448.9,578.36,289.18,448.89,0,289.18,0ZM430.27,416.87A25.24,25.24,0,0,1,396,426.53a302.94,302.94,0,0,0-239.36-24.19,25.14,25.14,0,1,1-15.29-47.9,353.17,353.17,0,0,1,279.23,28.22A25.11,25.11,0,0,1,430.27,416.87ZM464.88,329a25.11,25.11,0,0,1-22.3,13.53A24.84,24.84,0,0,1,431,339.72,396.6,396.6,0,0,0,139.2,310.47a25.15,25.15,0,0,1-13.93-48.33,446.72,446.72,0,0,1,329,33A25.14,25.14,0,0,1,464.88,329ZM477.41,256a25.24,25.24,0,0,1-11.21-2.64,490.26,490.26,0,0,0-343.52-34.77A25.14,25.14,0,1,1,109.76,170,540.56,540.56,0,0,1,488.63,208.3,25.15,25.15,0,0,1,477.41,256Z"/></svg>