<svg id="Layer_1" data-name="Layer 1" xmlns="http://www.w3.org/2000/svg" viewBox="0 0 486.22 486.22"><defs><style>.cls-1{fill:none;stroke:#e593bf;stroke-linecap:round;stroke-linejoin:round;stroke-width:10px;}.cls-2{fill:#f2cee2;}.cls-3{fill:#e593bf;}</style></defs><path class="cls-1" d="M432.81,298.51c-.79,38.9,46.64,82.35,48.4,84-1.73-1-51.86-29.3-47.39,18.78,3.12,33.54,39.55,72,46.35,78.91l-.39-.38c-7.85-7.67-45.56-42.91-78.52-46-48.18-4.48-19.64,45.88-18.78,47.4-1.34-1.47-44.94-49.21-84-48.41-41.67.85-55.4,48.41-55.4,48.41s-13.73-47.56-55.4-48.41c-39-.8-82.63,46.94-84,48.41.86-1.52,29.4-51.88-18.78-47.4-33,3.06-70.67,38.3-78.52,46l-.39.38c6.8-6.92,43.23-45.37,46.35-78.91C56.87,353.18,6.74,381.49,5,382.48c1.76-1.62,49.19-45.07,48.4-84C52.56,256.84,5,243.11,5,243.11s47.56-13.73,48.41-55.4c.8-39-46.94-82.63-48.41-84,1.52.86,51.88,29.4,47.4-18.78-3.06-33-38.3-70.67-46-78.52l-.38-.39C13,12.85,51.42,49.28,85,52.4,133,56.87,104.73,6.74,103.74,5c1.34,1.46,44.94,49.2,84,48.4C229.38,52.56,243.11,5,243.11,5s13.73,47.56,55.4,48.41c39,.8,82.63-46.94,84-48.4-1,1.73-29.3,51.86,18.78,47.39,33.54-3.12,72-39.55,78.91-46.35l-.38.39c-7.67,7.85-42.91,45.56-46,78.52-4.48,48.18,45.88,19.64,47.4,18.78-1.47,1.34-49.21,44.94-48.41,84,.85,41.67,48.41,55.4,48.41,55.4S433.66,256.84,432.81,298.51Z"/><path class="cls-2" d="M243.11,465.55c-7.88-15.43-24.64-38.11-55.28-38.74h-1.09c-25.3,0-51.38,17.75-68.48,32.28,1.16-7,.91-14.2-2.54-20.11-4.42-7.58-12.84-11.43-25-11.43-2,0-4.1.1-6.3.31-14.24,1.32-29,8-42.19,16.09,8.1-13.17,14.85-28,16.16-42.12,1.15-12.35-1-21.59-6.34-27.46-4.26-4.68-10.25-7.05-17.78-7.05A42.15,42.15,0,0,0,27,368c14.75-17.43,32.9-44.13,32.38-69.58-.63-30.65-23.31-47.4-38.74-55.28,15.43-7.88,38.11-24.64,38.74-55.28.52-25.61-17.53-52.2-32.27-69.56a42.91,42.91,0,0,0,7.11.64c7.54,0,13.52-2.37,17.78-7,5.36-5.88,7.49-15.11,6.34-27.46-1.32-14.24-8-29-16.09-42.19,13.17,8.1,28,14.85,42.12,16.16,2.2.21,4.32.31,6.3.31,12.21,0,20.64-3.86,25.06-11.48,3.45-5.94,3.71-13.15,2.55-20.08,17.16,14.53,43.29,32.3,68.43,32.3h1.09c30.64-.63,47.4-23.31,55.28-38.74C251,36.1,267.75,58.78,298.39,59.41h1.09c25.15,0,51.28-17.78,68.43-32.3-1.15,6.93-.89,14.14,2.55,20.08,4.42,7.62,12.85,11.48,25.06,11.48,2,0,4.1-.1,6.3-.31,14.14-1.31,28.95-8.06,42.12-16.16-8.09,13.17-14.77,27.95-16.09,42.2-1.15,12.34,1,21.57,6.34,27.45,4.26,4.68,10.25,7,17.78,7a42.67,42.67,0,0,0,7.1-.63c-14.74,17.35-32.78,43.92-32.26,69.55.63,30.64,23.31,47.4,38.74,55.28-15.43,7.88-38.11,24.64-38.74,55.28-.52,25.45,17.63,52.15,32.38,69.58a42.15,42.15,0,0,0-7.22-.66c-7.53,0-13.52,2.37-17.78,7-5.36,5.88-7.49,15.12-6.34,27.47,1.31,14.14,8.06,28.95,16.16,42.12-13.17-8.09-27.95-14.77-42.19-16.09-2.2-.21-4.32-.31-6.3-.31-12.18,0-20.6,3.85-25,11.43-3.44,5.91-3.7,13.14-2.53,20.11-17.11-14.53-43.18-32.28-68.48-32.28h-1.09C267.75,427.44,251,450.12,243.11,465.55Z"/><path class="cls-3" d="M243.11,32.56c10,15.31,27.31,32.28,55.15,32.85h1.22c22.45,0,45-12.58,62.27-25.58a28.87,28.87,0,0,0,3.52,10.37c3.83,6.6,12.19,14.47,30.25,14.47,2.16,0,4.47-.11,6.85-.33,9.05-.84,18.23-3.66,27.1-7.59-3.93,8.87-6.76,18.06-7.6,27.09-1.31,14.09,1.34,24.88,7.89,32.05a27.5,27.5,0,0,0,16.7,8.61c-13.18,17.58-26.11,40.72-25.65,63.44.57,27.85,17.54,45.17,32.85,55.16-15.31,10-32.28,27.31-32.85,55.16-.46,22.79,12.35,45.83,25.58,63.44a27.53,27.53,0,0,0-16.63,8.6c-6.55,7.18-9.2,18-7.89,32.06.84,9.05,3.66,18.23,7.59,27.1-8.87-3.93-18.06-6.76-27.09-7.6-2.38-.22-4.68-.33-6.85-.33-18,0-26.38,7.83-30.21,14.41a29.24,29.24,0,0,0-3.6,10.52c-17.27-13-39.91-25.67-62.24-25.67h-1.2c-27.85.57-45.17,17.54-55.16,32.85-10-15.31-27.31-32.28-55.15-32.85h-1.22c-22.33,0-45,12.71-62.24,25.67A29.22,29.22,0,0,0,120.91,436c-3.84-6.57-12.19-14.41-30.21-14.41-2.16,0-4.47.11-6.85.33-9,.84-18.22,3.67-27.09,7.6,3.93-8.86,6.75-18.05,7.59-27.1,1.31-14.09-1.34-24.88-7.89-32.06a27.53,27.53,0,0,0-16.63-8.6c13.23-17.61,26-40.65,25.58-63.44-.57-27.85-17.54-45.17-32.85-55.16,15.31-10,32.28-27.31,32.85-55.15.46-22.73-12.47-45.87-25.65-63.45a27.56,27.56,0,0,0,16.71-8.61c6.54-7.17,9.19-18,7.88-32.05-.84-9-3.67-18.22-7.6-27.09,8.87,3.93,18,6.75,27.1,7.59,2.38.22,4.69.33,6.85.33,18.07,0,26.42-7.87,30.25-14.47a28.81,28.81,0,0,0,3.52-10.37c17.29,13,39.82,25.58,62.27,25.58H188c27.85-.57,45.17-17.54,55.16-32.85m0-27.56s-13.73,47.56-55.4,48.41h-1c-38.78,0-81.67-47-83-48.41,1,1.66,26.94,47.67-13,47.67Q88,52.68,85,52.4C51.42,49.28,13,12.85,6.05,6.05l.38.39C14.1,14.29,49.34,52,52.4,85c2,21.91-7.26,28-18.15,28-13.07,0-28.42-8.7-29.25-9.17,1.47,1.34,49.21,44.94,48.41,84C52.56,229.38,5,243.11,5,243.11s47.56,13.73,48.41,55.4c.79,38.9-46.64,82.35-48.4,84,.94-.54,16.23-9.18,29.24-9.17,10.89,0,20.19,6.05,18.15,27.95-3.12,33.54-39.55,72-46.35,78.91l.39-.38c7.85-7.67,45.56-42.91,78.52-46q3.08-.29,5.74-.28c40.05,0,13.86,46.22,13,47.68,1.33-1.46,44.21-48.42,83-48.42h1c41.67.85,55.4,48.41,55.4,48.41s13.73-47.56,55.4-48.41h1c38.78,0,81.67,47,83,48.42-.82-1.46-27-47.68,13-47.68q2.67,0,5.74.28c33,3.06,70.67,38.3,78.52,46l.39.38c-6.8-6.92-43.23-45.37-46.35-78.91-2-21.91,7.26-27.95,18.15-27.95,13,0,28.3,8.63,29.24,9.17-1.76-1.62-49.19-45.07-48.4-84,.85-41.67,48.41-55.4,48.41-55.4s-47.56-13.73-48.41-55.4c-.8-39,46.94-82.63,48.41-84-.83.47-16.18,9.17-29.25,9.17-10.89,0-20.19-6-18.15-27.95,3.06-33,38.3-70.67,46-78.52l.38-.39c-6.92,6.8-45.37,43.23-78.91,46.35q-3.08.29-5.74.28c-40,0-14-46-13-47.67-1.33,1.45-44.22,48.41-83,48.41h-1C256.84,52.56,243.11,5,243.11,5Z"/></svg>