<svg id="Layer_1" data-name="Layer 1" xmlns="http://www.w3.org/2000/svg" viewBox="0 0 1734.48 1912.06"><path d="M1014.48,294.48c0,537-175,720-720,720,545,0,720,187,720,720,0-533,143-720,720-720C1157.48,1014.48,1014.48,831.48,1014.48,294.48Z"/><path d="M294.48,0C294.48,219.63,222.9,294.48,0,294.48,222.9,294.48,294.48,371,294.48,589,294.48,371,353,294.48,589,294.48,353,294.48,294.48,219.63,294.48,0Z"/><path d="M472.06,1556.9c0,132.44-43.17,177.58-177.58,177.58,134.41,0,177.58,46.12,177.58,177.58,0-131.46,35.27-177.58,177.57-177.58C507.33,1734.48,472.06,1689.34,472.06,1556.9Z"/></svg>